<svg version="1.1" xmlns="http://www.w3.org/2000/svg" width="400px" height="398px" transform="rotate(0) scale(1, 1)">
<path d="M0 0 C3.1875 2.25 3.1875 2.25 5 5 C4.68513089 9.96470611 3.46478407 13.65411984 1.15625 18.02734375 C0.28250732 19.6983313 0.28250732 19.6983313 -0.60888672 21.40307617 C-1.23891788 22.58139927 -1.86929583 23.759537 -2.5 24.9375 C-3.1427806 26.15629285 -3.78486612 27.37545253 -4.42626953 28.5949707 C-8.15012532 35.65007412 -11.99169166 42.63398079 -15.94506836 49.56298828 C-26.50239869 68.13776231 -34.57914275 87.64296395 -41 108 C-18.872662 96.7647095 3.51074334 84.9401357 22.25 68.4375 C28.41243562 63.43443786 35.2881108 61.90049427 43.14453125 62.06640625 C51.11115011 63.03794514 58.1823521 66.0931926 63.83984375 71.8828125 C65 74 65 74 64.89453125 76.54296875 C63.14007194 81.3619858 59.30596512 83.48339098 55 86 C49.38187104 88.60731588 43.55295387 90.73185641 37.76855469 92.93652344 C13.73859492 101.74088667 13.73859492 101.74088667 -2 121 C-3.58251491 124.81242228 -4.52276969 127.88549499 -4 132 C-1.99532861 134.39219259 -1.99532861 134.39219259 0.6875 136.5 C1.59628906 137.28246094 2.50507813 138.06492188 3.44140625 138.87109375 C4.87552304 140.0643665 6.31583944 141.2505891 7.77734375 142.41015625 C9.125 143.5625 9.125 143.5625 11 146 C11.49863553 152.54825771 10.25108294 158.30264099 8.625 164.625 C8.36968506 165.64247314 8.11437012 166.65994629 7.85131836 167.70825195 C5.16793194 178.02046498 1.74568956 188.07983378 -1.83544922 198.10986328 C-2.47184326 199.93300049 -2.47184326 199.93300049 -3.12109375 201.79296875 C-3.5070874 202.8708667 -3.89308105 203.94876465 -4.29077148 205.05932617 C-5.04875833 208.20216666 -5.00708557 209.95053827 -4 213 C15.52087415 233.79397464 46.42101412 245.87337301 71.64373779 257.93792725 C76.68498536 260.35480041 81.70394895 262.81368105 86.70703125 265.30859375 C87.35460892 265.63055725 88.00218658 265.95252075 88.66938782 266.28424072 C102.96296488 273.44444732 102.96296488 273.44444732 106 278 C96.90983817 287.28240091 85.72234226 292.19959826 72.8125 292.375 C42.0151112 292.47494082 17.80504479 270.62392507 -3.7109375 251.0703125 C-6.54252475 248.50932062 -9.42013883 246.0043059 -12.30859375 243.5078125 C-14 242 -14 242 -15.53515625 240.3671875 C-17.06848105 238.74599301 -17.06848105 238.74599301 -20 238 C-20.21011719 238.55171875 -20.42023438 239.1034375 -20.63671875 239.671875 C-22.48642179 242.83068019 -25.03189392 244.93916745 -27.8125 247.25 C-28.39580078 247.73525146 -28.97910156 248.22050293 -29.58007812 248.72045898 C-57.34563758 271.34909106 -95.48093299 283.30629507 -131 283.0625 C-132.25167969 283.05798828 -133.50335938 283.05347656 -134.79296875 283.04882812 C-137.86202941 283.03711415 -140.93098907 283.02071073 -144 283 C-143 281 -143 281 -140.83300781 280.16552734 C-139.88264648 279.8917627 -138.93228516 279.61799805 -137.953125 279.3359375 C-136.3599646 278.86619507 -136.3599646 278.86619507 -134.73461914 278.38696289 C-133.58469482 278.05301514 -132.43477051 277.71906738 -131.25 277.375 C-98.57915057 267.58112917 -67.74002953 254.64073445 -43.125 230.375 C-42.30273926 229.56699951 -42.30273926 229.56699951 -41.46386719 228.74267578 C-38.17906737 225.43048572 -35.14326405 222.1855366 -33 218 C-33.85564544 213.75519646 -36.63971556 210.2742894 -39 206.6875 C-41.55260356 202.79342402 -44.08281491 198.89408278 -46.5 194.9140625 C-53.77360712 182.94505172 -60.80349081 172.46049519 -73 165 C-72 163 -72 163 -70.375 162.375 C-63.75094373 161.32909638 -57.96293048 161.94534003 -52 165 C-44.45766089 170.52313022 -38.7032426 177.67313158 -33 185 C-31.56617689 186.83621041 -30.1288403 188.66968432 -28.6875 190.5 C-28.07261719 191.2940625 -27.45773438 192.088125 -26.82421875 192.90625 C-25.03594373 194.95874553 -23.23559124 196.46025504 -21 198 C-11.11623764 184.36040794 -4.33006145 165.03303861 -7 148 C-8.33595527 144.2815251 -9.89804291 140.77050879 -11.59375 137.203125 C-14.16397857 131.34871547 -14.39273049 126.22949993 -13 120 C-14.19753906 120.50789063 -15.39507812 121.01578125 -16.62890625 121.5390625 C-18.27333204 122.23462439 -19.91787169 122.92991712 -21.5625 123.625 C-22.85728271 124.17305298 -22.85728271 124.17305298 -24.17822266 124.73217773 C-29.38171874 126.92582726 -34.60775508 129.02730275 -39.875 131.0625 C-48.71335566 134.56340711 -56.87662332 139.07538886 -65 144 C-65.9841125 142.73299277 -66.96211497 141.4612381 -67.9375 140.1875 C-68.48277344 139.47980469 -69.02804688 138.77210938 -69.58984375 138.04296875 C-72.39048383 133.98553174 -72.86730209 129.75922912 -72 125 C-69.09196122 117.66153222 -65.1364848 111.09875752 -60.75 104.5625 C-43.77576699 78.93740599 -37.60959862 49.51093182 -31 20 C-33.37528151 20.14203337 -35.75015251 20.28851612 -38.125 20.4375 C-38.79015625 20.47681641 -39.4553125 20.51613281 -40.140625 20.55664062 C-44.15018817 20.812152 -48.04994196 21.26782413 -52 22 C-51.64976569 15.17043087 -47.95979472 9.92748255 -43.2109375 5.23046875 C-31.59081716 -4.21386774 -13.64808274 -6.63744649 0 0 Z " fill="#008ced" transform="translate(262,49)"/>
<path d="M0 0 C2.5 2.3125 2.5 2.3125 3.875 5.5625 C3.29939964 11.3185036 -0.22233659 13.71336251 -4.5 17.3125 C-5.14453125 17.8384375 -5.7890625 18.364375 -6.453125 18.90625 C-18.1308485 28.45151964 -19.98448226 44.03783365 -21.5 58.3125 C-22.01182015 64.2620034 -22.31384894 70.22482969 -22.625 76.1875 C-22.71168274 77.76174951 -22.79891936 79.33596862 -22.88671875 80.91015625 C-23.09750654 84.7106188 -23.30088607 88.5114087 -23.5 92.3125 C-16.54029386 88.00734416 -10.24477169 83.62673957 -4.10546875 78.23046875 C1.08804145 74.40736004 5.58038863 73.96748246 11.765625 74.7734375 C23.84778764 77.15534956 23.84778764 77.15534956 27.37890625 81.765625 C28.5 84.3125 28.5 84.3125 27.5 87.3125 C25.05892389 88.68657437 22.67394716 89.88331011 20.1328125 91.04296875 C19.38345428 91.39708328 18.63409607 91.75119781 17.86203003 92.11604309 C14.65815417 93.63001699 11.44361371 95.12063226 8.22851562 96.6105957 C-1.40714142 101.09379764 -10.240606 105.53186624 -18.5 112.3125 C-19.53511719 113.06015625 -20.57023437 113.8078125 -21.63671875 114.578125 C-24.69131586 119.06076226 -24.28449787 123.76220912 -24.3125 129.0625 C-24.34911743 130.72430298 -24.34911743 130.72430298 -24.38647461 132.41967773 C-24.45163611 135.71761349 -24.48175666 139.01400324 -24.5 142.3125 C-24.51256836 143.71363037 -24.51256836 143.71363037 -24.52539062 145.14306641 C-24.56450005 149.867307 -24.54789223 154.58822148 -24.5 159.3125 C-20.60261954 157.37622424 -16.7065933 155.43725713 -12.81176758 153.49584961 C-11.48823817 152.83659006 -10.16434968 152.17805085 -8.84008789 151.52026367 C-6.93018911 150.57141964 -5.02162198 149.61994174 -3.11328125 148.66796875 C-1.96641846 148.09715576 -0.81955566 147.52634277 0.36206055 146.93823242 C3.48732457 145.38428436 3.48732457 145.38428436 6.22583008 143.5402832 C6.97630615 143.13511475 7.72678223 142.72994629 8.5 142.3125 C9.49 142.6425 10.48 142.9725 11.5 143.3125 C10.88253906 143.97894531 10.26507813 144.64539063 9.62890625 145.33203125 C5.32184484 150.0193203 1.11162122 154.72068201 -2.875 159.6875 C-7.22379599 165.07355298 -11.86666174 170.12889442 -16.58984375 175.18359375 C-19.12480297 177.89685033 -21.60015609 180.65800267 -24.0625 183.4375 C-36.81890505 197.61894489 -50.96705823 208.74656479 -66.38623047 219.79492188 C-75.60716807 226.41508221 -84.45675158 233.26925158 -92.5 241.3125 C-96.125 241.4375 -96.125 241.4375 -99.5 241.3125 C-100.8290876 238.98735359 -102.13787394 236.65404849 -103.4375 234.3125 C-103.81068359 233.66410156 -104.18386719 233.01570312 -104.56835938 232.34765625 C-107.18443804 227.58686445 -108.51093557 223.79122019 -108.5 218.3125 C-107.23686018 215.76244361 -106.11872159 213.90753692 -104.4375 211.6875 C-88.08369992 188.14336582 -86.70737561 159.97821208 -87.45214844 132.22900391 C-87.49388999 129.68489868 -87.42967976 127.17753442 -87.3203125 124.63671875 C-87.37906511 120.46108697 -87.50312416 117.99245691 -89.5 114.3125 C-94.80273536 110.09757657 -101.18182947 107.60543052 -107.5 105.3125 C-104.1088994 98.47252579 -100.52547041 92.8252352 -93.5 89.3125 C-84.22201759 88.29824027 -75.52414588 90.09154072 -67.6484375 95.140625 C-64.1695499 100.27672814 -65.12786157 105.34789207 -65.5 111.375 C-65.56630579 112.72371355 -65.63087165 114.07251358 -65.69384766 115.42138672 C-65.88063241 119.2112413 -66.10739016 122.99780582 -66.34387207 126.78485107 C-66.50761634 129.43580547 -66.66227413 132.08718328 -66.81542969 134.73876953 C-67.14919494 140.47295725 -67.50791134 146.20535905 -67.875 151.9375 C-67.96007812 153.29985275 -67.96007812 153.29985275 -68.046875 154.68972778 C-68.74978502 165.73647301 -69.82684774 176.63895089 -71.51571655 187.5819397 C-71.64282013 188.40616425 -71.76992371 189.23038879 -71.90087891 190.07958984 C-72.01621979 190.80238129 -72.13156067 191.52517273 -72.25039673 192.26986694 C-72.58086306 194.63127322 -72.58086306 194.63127322 -72.5 198.3125 C-70.0378236 196.33807863 -67.58104919 194.35703611 -65.125 192.375 C-64.44566406 191.83037109 -63.76632813 191.28574219 -63.06640625 190.72460938 C-61.63232749 189.56528402 -60.21866805 188.38037669 -58.82324219 187.17480469 C-56.5 185.3125 -56.5 185.3125 -53.74707031 183.75488281 C-50.32496663 181.52159927 -48.58776899 179.86108267 -46.5 176.3125 C-45.05204586 169.18991047 -45.5802174 161.77755144 -45.85986328 154.55819702 C-46.04943214 149.66032713 -46.13133541 144.76254312 -46.21679688 139.86192322 C-46.25969391 137.41379644 -46.30785356 134.9657561 -46.36132812 132.51783752 C-46.55470562 122.95671668 -46.21953095 113.53026925 -45.5 104 C-44.10968287 84.78281175 -44.30950024 65.56909457 -44.5 46.3125 C-46.1034598 46.61930121 -47.70618654 46.92993529 -49.30859375 47.2421875 C-50.20118896 47.41476074 -51.09378418 47.58733398 -52.01342773 47.76513672 C-54.63272657 48.28307563 -54.63272657 48.28307563 -57.5625 49.4375 C-69.86311749 53.10151372 -81.18014516 45.68225727 -91.8125 40.0625 C-94.82434622 38.4205134 -97.18845965 36.85594246 -99.5 34.3125 C-98.60087891 33.96251953 -98.60087891 33.96251953 -97.68359375 33.60546875 C-75.69055708 24.7519419 -54.40700849 13.74884269 -34.34179688 1.12841797 C-23.63837362 -5.49736237 -11.24842251 -5.42334657 0 0 Z " fill="#008ced" transform="translate(155.5,82.6875)"/>
</svg>